<?xml version="1.0" encoding="UTF-8"?>
<svg version="1.1" xmlns="http://www.w3.org/2000/svg" width="1024" height="1024">
<path d="M0 0 C337.92 0 675.84 0 1024 0 C1024 337.92 1024 675.84 1024 1024 C686.08 1024 348.16 1024 0 1024 C0 686.08 0 348.16 0 0 Z " fill="#FEFEFC" transform="translate(0,0)"/>
<path d="M0 0 C2.40621408 2.14242172 4.72976845 4.32400395 7.01171875 6.59765625 C8.25115234 7.80228516 8.25115234 7.80228516 9.515625 9.03125 C27.79320782 27.82369431 35.42081819 52.28062462 35.38134766 78.04052734 C35.04198259 99.28710111 28.28846091 118.02834123 21.18383789 137.79467773 C16.48501673 150.91611057 12.65647549 163.89091695 10.01171875 177.59765625 C9.8410791 178.38720703 9.67043945 179.17675781 9.49462891 179.99023438 C3.79949745 206.59375073 4.61833906 238.26239547 11.01171875 264.59765625 C11.1936377 265.39381348 11.37555664 266.1899707 11.56298828 267.01025391 C15.03117409 281.97087312 21.06221775 295.94629794 28.01171875 309.59765625 C-1.11444394 295.626817 -29.79007204 275.21838319 -54.07421875 254.109375 C-56.8694112 251.70011394 -59.72608674 249.39521245 -62.61328125 247.09765625 C-67.60861677 243.04304815 -72.06382281 238.62403502 -76.5546875 234.03125 C-78.39772008 232.18821742 -80.19779263 230.51764993 -82.23828125 228.91015625 C-85.20730523 226.41347699 -87.57126486 223.70543926 -90.078125 220.7578125 C-92.0824734 218.49113629 -94.19405275 216.39402361 -96.36328125 214.28515625 C-101.32680828 209.37185041 -105.6415381 204.05538806 -109.98828125 198.59765625 C-110.9477588 197.42718712 -111.90876874 196.25797291 -112.87109375 195.08984375 C-119.82297842 186.60554235 -126.13937821 177.87597822 -131.98828125 168.59765625 C-132.37612793 167.98422363 -132.76397461 167.37079102 -133.16357422 166.73876953 C-152.95813428 135.19196752 -166.0984902 99.7684998 -158.86083984 61.89624023 C-154.93712818 44.75551162 -147.31335675 29.07306254 -135.98828125 15.59765625 C-135.35664063 14.80875 -134.725 14.01984375 -134.07421875 13.20703125 C-120.45959965 -3.00813307 -101.08185665 -12.74314977 -80.98828125 -18.40234375 C-80.11558594 -18.64855469 -79.24289062 -18.89476562 -78.34375 -19.1484375 C-51.19763209 -25.34715734 -21.45325679 -17.24673585 0 0 Z " fill="#76A9BD" transform="translate(486.98828125,227.40234375)"/>
<path d="M0 0 C1.11761719 0.29003906 2.23523438 0.58007812 3.38671875 0.87890625 C23.21272689 6.48649909 38.37174725 17.83493857 48.4609375 35.87109375 C57.78469666 54.8262488 57.12484368 77.20308307 50.74609375 96.984375 C42.71940198 120.47582625 26.61134603 139.97965587 10 158 C9.46632813 158.58410645 8.93265625 159.16821289 8.3828125 159.77001953 C-0.1428808 169.08907596 -8.95035817 177.95402801 -18.296875 186.44970703 C-19.87251206 187.88395235 -21.43804505 189.32823164 -23 190.77734375 C-29.14029664 196.43792972 -35.45174652 201.81733707 -42 207 C-42.59490234 207.47276367 -43.18980469 207.94552734 -43.80273438 208.43261719 C-60.2346746 221.43362146 -77.49392504 233.15368565 -96 243 C-97.51787109 243.83724609 -97.51787109 243.83724609 -99.06640625 244.69140625 C-99.95199219 245.16449219 -100.83757813 245.63757813 -101.75 246.125 C-102.48734375 246.51945313 -103.2246875 246.91390625 -103.984375 247.3203125 C-106 248 -106 248 -107.99609375 248.05078125 C-111.28053822 246.32852869 -112.61433725 243.22143193 -114.3125 240.0625 C-114.70203857 239.35101807 -115.09157715 238.63953613 -115.49291992 237.90649414 C-122.22957178 225.26064347 -126.69966489 211.90496519 -130 198 C-130.20238281 197.21882812 -130.40476562 196.43765625 -130.61328125 195.6328125 C-131.15778266 193.42986787 -131.5978257 191.2335037 -132 189 C-132.185625 187.97132813 -132.37125 186.94265625 -132.5625 185.8828125 C-140.13495365 136.13599897 -126.99670641 77.04910668 -97.203125 36.046875 C-82.50398776 16.60280653 -62.77457477 1.34822253 -38.22509766 -2.72314453 C-25.3234535 -4.32841823 -12.53271809 -3.33728379 0 0 Z " fill="#8AAA8B" transform="translate(645,287)"/>
<path d="M0 0 C15.24941063 12.77878259 20.90922426 28.82181296 22.640625 48.109375 C23.00315735 52.32156028 22.9375 56.34179009 22.9375 60.625 C-10.7225 60.625 -44.3825 60.625 -79.0625 60.625 C-75.52407142 74.77871434 -71.29926529 86.13377984 -58.54296875 94.22265625 C-47.29047813 100.15138787 -35.73459541 101.4979987 -23.375 98 C-13.37786526 94.55520417 -6.14426855 89.4189017 0.9375 81.625 C7.21512202 85.25941275 11.92861424 90.43793254 16.9375 95.625 C7.12894879 108.27286867 -8.44482873 116.5505238 -24.0625 119.625 C-28.17762648 120.03580898 -32.24156056 120.10265523 -36.375 120.0625 C-38.01976318 120.05114014 -38.01976318 120.05114014 -39.69775391 120.03955078 C-57.51316862 119.67823149 -72.19749006 113.02076946 -85.0625 100.625 C-98.49120297 85.15178862 -104.35968534 66.27145514 -103.2890625 45.93408203 C-101.69924801 29.73099424 -95.20164313 14.62665388 -83.0625 3.625 C-74.59718916 -3.08905133 -65.44964044 -7.38209513 -55.0625 -10.375 C-54.22460938 -10.61992188 -53.38671875 -10.86484375 -52.5234375 -11.1171875 C-34.23641122 -15.58191298 -14.82126251 -11.49404032 0 0 Z " fill="#2E3E42" transform="translate(560.0625,652.375)"/>
<path d="M0 0 C13.35448466 11.98064963 18.89080303 28.47468785 20 46 C20 49.63 20 53.26 20 57 C-13.99 57 -47.98 57 -83 57 C-76.4820735 77.13404183 -76.4820735 77.13404183 -61.46484375 90.46875 C-48.60864566 96.8321056 -35.53328016 97.37528822 -22 93 C-15.25920195 90.227575 -10.35096988 85.83991197 -5.1640625 80.79296875 C-3 79 -3 79 0 79 C1.53393555 80.19335938 1.53393555 80.19335938 3.13671875 81.84375 C3.71357422 82.43027344 4.29042969 83.01679687 4.88476562 83.62109375 C5.47966797 84.24113281 6.07457031 84.86117187 6.6875 85.5 C7.59725586 86.43005859 7.59725586 86.43005859 8.52539062 87.37890625 C10.02373743 88.91264707 11.51276493 90.45548198 13 92 C8.10061738 102.22502733 -4.21104174 108.28129175 -14.39453125 112.359375 C-32.28198792 118.44684484 -52.09004309 118.20721776 -69.37890625 110.4921875 C-85.62898742 102.39539155 -96.78890282 89.2342032 -103.00390625 72.2578125 C-108.74662026 54.00319501 -107.72695809 33.05723627 -99 16 C-88.94750314 -0.00796769 -75.05150284 -10.35111837 -56.6875 -15.3125 C-35.92815638 -19.2095609 -16.16257482 -12.83677523 0 0 Z " fill="#2C3B3F" transform="translate(332,656)"/>
<path d="M0 0 C0.97324219 0.3403125 1.94648437 0.680625 2.94921875 1.03125 C17.91688022 6.70401286 30.01693272 17.11080152 36.71875 31.76171875 C41.8165106 44.64599784 42.28578903 55.71578059 43 70 C9.34 70 -24.32 70 -59 70 C-55.56203695 83.75185218 -51.67042812 95.14821803 -39.1015625 102.75390625 C-27.31423078 108.91479122 -16.44531112 111.0697876 -3.375 107.375 C6.66015308 103.94602296 13.89776911 98.8164217 21 91 C26.03163018 95.29785078 31.02718443 99.63425542 36 104 C35.1154961 109.79414151 30.43720796 112.64474137 26 116 C8.37621901 127.55383267 -10.51156874 131.73497504 -31.47558594 128.63378906 C-47.47823124 125.22338924 -62.32557784 115.29092274 -71.3203125 101.60546875 C-81.72459025 84.71872387 -86.05660635 64.40622966 -81.4375 44.9375 C-78.21384238 32.64241373 -72.0112867 22.90100872 -63 14 C-62.38640625 13.36449219 -61.7728125 12.72898437 -61.140625 12.07421875 C-45.54521207 -2.95469414 -20.11864859 -7.48039708 0 0 Z " fill="#2D3D40" transform="translate(869,643)"/>
<path d="M0 0 C10.81753918 7.0158481 18.55242429 17.61729313 21.453125 30.33203125 C22.93432542 44.89067219 20.88054543 58.4177597 11.75 70.25 C5.18782969 77.58629204 -2.14821759 81.70307026 -11.25 85.25 C-12.9825 85.930625 -12.9825 85.930625 -14.75 86.625 C-28.1208531 89.01265234 -41.77633028 86.5997469 -53.25 79.25 C-64.29672262 70.97315293 -70.57207205 60.80606465 -73.25 47.25 C-74.52273928 33.29276922 -71.80961474 21.8099725 -63.27734375 10.67578125 C-58.27465858 4.77314214 -53.20264511 0.63122559 -46.25 -2.75 C-45.44304688 -3.1625 -44.63609375 -3.575 -43.8046875 -4 C-29.46328774 -10.31547879 -13.26649217 -7.35687293 0 0 Z " fill="#8BA88C" transform="translate(634.25,178.75)"/>
<path d="M0 0 C0.83917969 0.58652344 1.67835938 1.17304687 2.54296875 1.77734375 C1.07166502 6.13466635 -1.2878374 9.49668509 -4.08203125 13.08984375 C-4.50226563 13.63962891 -4.9225 14.18941406 -5.35546875 14.75585938 C-6.38423164 16.10026543 -7.41993215 17.43935788 -8.45703125 18.77734375 C-11.87673697 18.13565984 -14.2372623 16.78434394 -17.14453125 14.90234375 C-27.43697814 8.57203349 -38.44639495 6.61418093 -50.45703125 7.77734375 C-56.42038248 9.65109557 -61.09541103 12.36951991 -64.45703125 17.77734375 C-65.6496158 20.16251284 -65.53857136 21.38722234 -65.33203125 24.02734375 C-65.28820312 24.775 -65.244375 25.52265625 -65.19921875 26.29296875 C-63.71308286 31.26761309 -60.62609742 34.08171307 -56.3125 36.6484375 C-48.10828252 40.15204901 -39.92937176 42.88286788 -31.33203125 45.27734375 C-18.09361548 48.97728476 -5.41093667 52.92075708 2.84375 64.62109375 C7.17077657 72.35323744 6.93129571 83.15383962 4.84765625 91.59375 C3.91975387 93.83553096 2.87627263 95.75254375 1.54296875 97.77734375 C0.88941406 98.80021484 0.88941406 98.80021484 0.22265625 99.84375 C-7.34560422 110.74121795 -17.61624077 116.76923287 -30.45703125 119.77734375 C-52.0006489 121.86191276 -73.95714381 116.45159329 -90.83203125 102.57421875 C-92.45703125 100.77734375 -92.45703125 100.77734375 -92.45703125 97.77734375 C-90.55859375 95.40234375 -90.55859375 95.40234375 -88.08203125 92.77734375 C-85.62728951 90.15895256 -83.45049357 87.76753722 -81.45703125 84.77734375 C-78.31581505 86.22658668 -75.7181723 88.01438606 -72.95703125 90.08984375 C-60.32210255 99.06926637 -47.55472071 101.0045535 -32.45703125 99.77734375 C-25.94189023 98.32861481 -22.16492392 95.2233111 -18.45703125 89.77734375 C-16.82160123 84.87105368 -16.68021003 79.91360212 -18.45703125 75.02734375 C-25.65573648 66.92880036 -37.29389775 64.51228831 -47.23852539 61.2331543 C-55.37173051 58.53589493 -63.19856007 55.66101216 -70.78125 51.63671875 C-71.39376114 51.31225266 -72.00627228 50.98778656 -72.63734436 50.65348816 C-79.27859329 46.98507046 -83.6169702 42.52814379 -86.39453125 35.46484375 C-89.2409092 25.17545266 -87.53000531 14.87919736 -82.33203125 5.65234375 C-76.00610581 -3.61195533 -68.00250686 -7.93337135 -57.45703125 -11.22265625 C-56.82796875 -11.42503906 -56.19890625 -11.62742187 -55.55078125 -11.8359375 C-37.01411452 -15.25968751 -15.56644231 -10.33968718 0 0 Z " fill="#2D3D40" transform="translate(200.45703125,652.22265625)"/>
<path d="M0 0 C8.25 0 16.5 0 25 0 C27.41973275 6.22799089 29.83688066 12.45694682 32.25 18.6875 C32.62060547 19.64419586 32.99121094 20.60089172 33.37304688 21.58657837 C38.15221191 33.93313765 42.88181747 46.29734801 47.546875 58.6875 C48.00306213 59.89904251 48.45924927 61.11058502 48.92926025 62.35884094 C51.17807203 68.33531738 53.42196588 74.31360485 55.66113281 80.29370117 C56.48240023 82.48096516 57.30368825 84.66822141 58.125 86.85546875 C58.50340027 87.87008179 58.88180054 88.88469482 59.27166748 89.93005371 C59.61772034 90.85056519 59.96377319 91.77107666 60.3203125 92.71948242 C60.77301514 93.92939095 60.77301514 93.92939095 61.23486328 95.16374207 C61.85621751 96.98312993 61.85621751 96.98312993 63 98 C63.202267 97.43021927 63.404534 96.86043854 63.6129303 96.27339172 C70.09449891 78.05480453 76.85083389 59.94523071 83.67749023 41.85375977 C85.16515191 37.9111093 86.64909757 33.96707116 88.13210964 30.02266979 C89.28784517 26.95006381 90.44559783 23.87822097 91.60396004 20.80660439 C92.15281249 19.35042116 92.70101397 17.89399238 93.24853325 16.43730736 C94.00663313 14.42120149 94.76747819 12.40615286 95.52905273 10.39135742 C95.95935287 9.2498674 96.38965302 8.10837738 96.83299255 6.93229675 C98 4 98 4 100 0 C108.25 0 116.5 0 125 0 C118.06044536 18.50547904 110.89286491 36.90265584 103.58770752 55.26638794 C96.9255334 72.02333138 90.42888545 88.83723876 84.07543945 105.71362305 C83.76177429 106.54424255 83.44810913 107.37486206 83.12493896 108.23065186 C82.55008138 109.75363753 81.97737834 111.27743944 81.40753174 112.80230713 C79.45251885 117.98010891 77.25808962 122.91929835 75 128 C66.75 128 58.5 128 50 128 C45.50024347 119.00048695 45.50024347 119.00048695 43.74853516 114.43066406 C43.35306488 113.40499329 42.9575946 112.37932251 42.55014038 111.3225708 C42.13398468 110.23127869 41.71782898 109.13998657 41.2890625 108.015625 C40.84414459 106.85875183 40.39922668 105.70187866 39.94082642 104.50994873 C38.99056354 102.03772514 38.04171168 99.56501749 37.09533691 97.09130859 C35.6129746 93.21681842 34.12491812 89.34453185 32.63574219 85.47265625 C31.14442096 81.59457098 29.65330181 77.71640974 28.1640625 73.83752441 C24.2142636 63.5499419 20.24408595 53.27046544 16.25 43 C15.83681519 41.93625153 15.83681519 41.93625153 15.4152832 40.85101318 C12.62298199 33.66460139 9.80709956 26.48874078 6.9296875 19.3359375 C6.45370117 18.15257812 5.97771484 16.96921875 5.48730469 15.75 C4.60896154 13.57397569 3.72706581 11.39938035 2.84082031 9.2265625 C2.46280273 8.29328125 2.08478516 7.36 1.6953125 6.3984375 C1.36547363 5.59067871 1.03563477 4.78291992 0.69580078 3.95068359 C0 2 0 2 0 0 Z " fill="#2D3D40" transform="translate(592,642)"/>
<path d="M0 0 C0 7.59 0 15.18 0 23 C-4.95 22.01 -4.95 22.01 -10 21 C-18.99373087 20.39231548 -25.87442084 22.26855589 -33 28 C-41.3047975 37.11700263 -43.10497994 46.74900544 -43.20532227 58.86303711 C-43.22017166 59.99110779 -43.22017166 59.99110779 -43.23532104 61.14196777 C-43.26666355 63.60372881 -43.2915845 66.06550908 -43.31640625 68.52734375 C-43.33699938 70.24370294 -43.35799644 71.96005733 -43.37937927 73.67640686 C-43.4343565 78.17587372 -43.48387232 82.6753845 -43.53222656 87.17492676 C-43.5826203 91.77355824 -43.63821272 96.37212661 -43.69335938 100.97070312 C-43.80064278 109.98041664 -43.90167201 118.9901843 -44 128 C-51.59 128 -59.18 128 -67 128 C-67 85.76 -67 43.52 -67 0 C-61.06 0 -55.12 0 -49 0 C-47.515 8.91 -47.515 8.91 -46 18 C-45.195625 16.845 -44.39125 15.69 -43.5625 14.5 C-32.14910466 -0.54008171 -18.24560248 -5.21302928 0 0 Z " fill="#2C3C3F" transform="translate(448,642)"/>
<path d="M0 0 C7.59 0 15.18 0 23 0 C23 42.24 23 84.48 23 128 C15.41 128 7.82 128 0 128 C0 85.76 0 43.52 0 0 Z " fill="#2A3A3D" transform="translate(736,642)"/>
<path d="M0 0 C8.97772779 6.53388506 12.91453113 15.9238536 15.06640625 26.50390625 C15.06640625 27.82390625 15.06640625 29.14390625 15.06640625 30.50390625 C-10.34359375 30.50390625 -35.75359375 30.50390625 -61.93359375 30.50390625 C-61.93359375 19.32154833 -58.00169852 11.60683096 -50.25390625 3.62890625 C-36.14181463 -9.29529887 -16.15786177 -9.68315509 0 0 Z " fill="#FCFDFB" transform="translate(311.93359375,665.49609375)"/>
<path d="M0 0 C11.23479853 8.27400325 12.96387317 17.54642558 15.0625 31.1875 C-10.3475 31.1875 -35.7575 31.1875 -61.9375 31.1875 C-60.66799189 21.03143514 -56.91596777 10.67298935 -49.015625 3.64453125 C-34.37435764 -6.62086861 -15.78485396 -9.99008199 0 0 Z " fill="#FCFDFB" transform="translate(542.9375,664.8125)"/>
<path d="M0 0 C9.73946732 7.63514647 11.8877506 17.2066075 14 29 C14 29.33 14 29.66 14 30 C-11.41 30 -36.82 30 -63 30 C-60.89779917 18.43789541 -58.29640154 8.48708317 -48.58984375 1.1875 C-33.2951538 -9.13802908 -15.83722981 -10.06129894 0 0 Z " fill="#FDFDFB" transform="translate(873,666)"/>
<path d="M0 0 C5.36787898 1.88869816 8.45991584 4.91983169 11 10 C11.55769904 15.96308973 11.50156448 20.92876868 8 26 C2.82453302 30.67054337 -0.39604098 31.35784069 -7.23828125 31.27734375 C-12.43664786 30.75530128 -14.95805668 28.124202 -18.375 24.4375 C-20.67768515 19.56643525 -20.77379561 15.29813119 -20 10 C-15.84156415 1.20330878 -9.18932295 -1.22723857 0 0 Z " fill="#2B3B3D" transform="translate(752,593)"/>
<path d="M0 0 C0.33 0 0.66 0 1 0 C1.495 8.415 1.495 8.415 2 17 C-31.66 17 -65.32 17 -100 17 C-96.24692157 32.01231373 -91.51508296 42.72044627 -78.4375 51.5625 C-77.633125 52.036875 -76.82875 52.51125 -76 53 C-76.99 53.495 -76.99 53.495 -78 54 C-90.56752789 45.93737641 -97.99528183 36.3972446 -101.52734375 21.82421875 C-101.875 19.9375 -101.875 19.9375 -102 17 C-100 15 -100 15 -98.19216728 14.75390434 C-97.45657648 14.75574793 -96.72098568 14.75759151 -95.96310425 14.75949097 C-95.11893951 14.75674164 -94.27477478 14.75399231 -93.4050293 14.75115967 C-92.477146 14.75835022 -91.5492627 14.76554077 -90.59326172 14.77294922 C-89.61761261 14.77265717 -88.6419635 14.77236511 -87.63674927 14.77206421 C-84.40097259 14.77346132 -81.16542412 14.78904049 -77.9296875 14.8046875 C-75.69052252 14.80841627 -73.45135591 14.81126388 -71.21218872 14.81326294 C-65.3102368 14.82091008 -59.40838286 14.84056785 -53.50646973 14.8626709 C-47.48739955 14.88310608 -41.46831359 14.89225967 -35.44921875 14.90234375 C-23.63276938 14.92381271 -11.81639283 14.95796167 0 15 C0 10.05 0 5.1 0 0 Z " fill="#151E20" transform="translate(581,696)"/>
<path d="M0 0 C0.33 1.32 0.66 2.64 1 4 C26.41 4 51.82 4 78 4 C78.33 3.01 78.66 2.02 79 1 C78.67 2.65 78.34 4.3 78 6 C38.895 6.495 38.895 6.495 -1 7 C-0.67 4.69 -0.34 2.38 0 0 Z " fill="#050D10" transform="translate(809,692)"/>
<path d="M0 0 C1.0625 1.75 1.0625 1.75 2 4 C1.67 5.32 1.34 6.64 1 8 C-24.74 8 -50.48 8 -77 8 C-74.5704097 5.5704097 -73.30611087 5.76553743 -69.99156189 5.75115967 C-68.95038963 5.7619455 -68.95038963 5.7619455 -67.88818359 5.77294922 C-67.15637375 5.77265717 -66.4245639 5.77236511 -65.670578 5.77206421 C-63.24641146 5.77345999 -60.82255049 5.7890326 -58.3984375 5.8046875 C-56.71977913 5.80841675 -55.04111859 5.81126414 -53.36245728 5.81326294 C-48.94008393 5.82090631 -44.51784155 5.84056078 -40.09552002 5.8626709 C-35.58453137 5.88311421 -31.0735216 5.89226141 -26.5625 5.90234375 C-17.70827573 5.92380606 -8.85414875 5.95795045 0 6 C0 4.02 0 2.04 0 0 Z " fill="#030A0D" transform="translate(558,690)"/>
<path d="M0 0 C0.33 0 0.66 0 1 0 C1.495 8.415 1.495 8.415 2 17 C-31 17 -64 17 -98 17 C-98 16.67 -98 16.34 -98 16 C-65.66 15.67 -33.32 15.34 0 15 C0 10.05 0 5.1 0 0 Z " fill="#000406" transform="translate(581,696)"/>
<path d="M0 0 C3.1412162 1.44924293 5.73885895 3.23704231 8.5 5.3125 C18.12740293 12.15452671 27.68861726 15.17859281 39.3125 15.1875 C40.55676758 15.20586914 40.55676758 15.20586914 41.82617188 15.22460938 C46.94679921 15.23673399 51.15007474 14.6559124 56 13 C56 13.66 56 14.32 56 15 C48.83249225 19.7783385 37.56823915 18.87562087 29.43359375 17.31640625 C18.23913536 14.35497434 8.96880932 9.24700352 0 2 C-0.25523438 2.57234375 -0.51046875 3.1446875 -0.7734375 3.734375 C-2.13087159 6.24173733 -3.71974104 8.1330456 -5.625 10.25 C-6.25664063 10.95640625 -6.88828125 11.6628125 -7.5390625 12.390625 C-8.02117187 12.92171875 -8.50328125 13.4528125 -9 14 C-9.66 13.67 -10.32 13.34 -11 13 C-10.06027344 11.96939453 -10.06027344 11.96939453 -9.1015625 10.91796875 C-8.28429687 10.01691406 -7.46703125 9.11585938 -6.625 8.1875 C-5.81289062 7.29417969 -5.00078125 6.40085937 -4.1640625 5.48046875 C-1.90927093 3.00367326 -1.90927093 3.00367326 0 0 Z " fill="#13191B" transform="translate(119,737)"/>
<path d="M0 0 C1.32451172 0.01353516 1.32451172 0.01353516 2.67578125 0.02734375 C3.67158203 0.04474609 3.67158203 0.04474609 4.6875 0.0625 C4.6875 0.3925 4.6875 0.7225 4.6875 1.0625 C2.8003125 1.35640625 2.8003125 1.35640625 0.875 1.65625 C-19.74022242 5.15179551 -33.78401626 12.9305967 -47.3125 29.0625 C-47.6425 28.4025 -47.9725 27.7425 -48.3125 27.0625 C-37.9448557 12.72996848 -24.72470088 4.62818526 -7.67578125 0.41015625 C-5.08294551 0.02873083 -2.6195075 -0.03492677 0 0 Z " fill="#0F1516" transform="translate(515.3125,640.9375)"/>
<path d="M0 0 C0 4.85792026 -3.32592272 7.2930409 -6.5625 10.6875 C-10.38551689 14.31446475 -12.9194774 15.17052692 -18 16 C-18.66 16.33 -19.32 16.66 -20 17 C-24.76999703 19.38499852 -30.15743739 19.11172229 -35.375 19.0625 C-37.24285156 19.04896484 -37.24285156 19.04896484 -39.1484375 19.03515625 C-40.55996094 19.01775391 -40.55996094 19.01775391 -42 19 C-42 18.67 -42 18.34 -42 18 C-40.45892578 17.85304688 -40.45892578 17.85304688 -38.88671875 17.703125 C-23.1892475 16.06935696 -10.96875516 11.81250555 0 0 Z " fill="#0D1315" transform="translate(329,735)"/>
<path d="M0 0 C0.99 0 1.98 0 3 0 C3 7.59 3 15.18 3 23 C-0.3 22.34 -3.6 21.68 -7 21 C-13.19681548 20.665037 -18.05791336 21.27139298 -24 23 C-24 22.34 -24 21.68 -24 21 C-19.5029301 19.2698296 -15.74785648 18.72906265 -10.9375 18.75 C-9.75027344 18.74484375 -8.56304687 18.7396875 -7.33984375 18.734375 C-4 19 -4 19 1 21 C0.67 14.07 0.34 7.14 0 0 Z " fill="#070E0F" transform="translate(445,642)"/>
<path d="M0 0 C1.58941406 0.01353516 1.58941406 0.01353516 3.2109375 0.02734375 C4.00757813 0.03894531 4.80421875 0.05054688 5.625 0.0625 C5.295 0.7225 4.965 1.3825 4.625 2.0625 C2.54851686 2.27254887 0.46122486 2.37776228 -1.625 2.4375 C-11.86358565 3.03179672 -21.53947696 5.79516896 -30.375 11.0625 C-30.705 12.0525 -31.035 13.0425 -31.375 14.0625 C-32.365 14.3925 -33.355 14.7225 -34.375 15.0625 C-34.375 13.7425 -34.375 12.4225 -34.375 11.0625 C-25.41412794 3.13252473 -11.66852144 -0.12965024 0 0 Z " fill="#161D1E" transform="translate(847.375,639.9375)"/>
<path d="M0 0 C2.10865385 3.47307692 2.10865385 3.47307692 1.55859375 6.140625 C1.37425781 6.75421875 1.18992187 7.3678125 1 8 C-9.3905794 8.12288464 -19.63946908 7.83360594 -30 7 C-30 6.67 -30 6.34 -30 6 C-20.1 6 -10.2 6 0 6 C0 4.02 0 2.04 0 0 Z " fill="#091013" transform="translate(558,690)"/>
<path d="M0 0 C1.32960444 3.98881331 0.29028309 5.50204652 -1.23828125 9.3828125 C-1.47910934 9.99768524 -1.71993744 10.61255798 -1.96806335 11.24606323 C-2.4789621 12.5439342 -2.99453011 13.83997544 -3.5144043 15.13427734 C-4.31048991 17.11998615 -5.0888445 19.11198877 -5.86523438 21.10546875 C-9.72551349 30.86275675 -9.72551349 30.86275675 -12 32 C-12 30.02 -12 28.04 -12 26 C-11.34 25.67 -10.68 25.34 -10 25 C-9.13340264 23.17718913 -8.35373134 21.31272483 -7.6171875 19.43359375 C-7.17246094 18.30888672 -6.72773437 17.18417969 -6.26953125 16.02539062 C-5.80933594 14.84138672 -5.34914063 13.65738281 -4.875 12.4375 C-4.40707031 11.24962891 -3.93914063 10.06175781 -3.45703125 8.83789062 C-2.29850572 5.89429003 -1.14647711 2.94830958 0 0 Z " fill="#11181A" transform="translate(701,678)"/>
<path d="M0 0 C5.31027254 1.46032495 9.46330032 3.98320986 14 7 C12.5140084 11.59306496 10.14985318 14.43569245 7 18 C7 13.75354935 8.81750806 11.61475228 11 8 C9.73168307 7.18357746 8.46024069 6.37200895 7.1875 5.5625 C6.47980469 5.11003906 5.77210938 4.65757812 5.04296875 4.19140625 C2.91865448 2.85913661 2.91865448 2.85913661 0 2 C0 1.34 0 0.68 0 0 Z " fill="#0E1415" transform="translate(189,647)"/>
<path d="M0 0 C0 4.85792026 -3.32592272 7.2930409 -6.5625 10.6875 C-9 13 -9 13 -12 15 C-12 9.17042346 -4.01503737 4.01503737 0 0 Z " fill="#1F282B" transform="translate(329,735)"/>
<path d="M0 0 C2.33364352 2.92903058 4.04960836 5.88568203 5.6875 9.25 C6.34298828 10.58804688 6.34298828 10.58804688 7.01171875 11.953125 C7.33785156 12.62859375 7.66398438 13.3040625 8 14 C4.44774296 12.28564986 1.25978366 10.22257977 -2 8 C0 7 0 7 2 7 C2 6.34 2 5.68 2 5 C1.01 5.33 0.02 5.66 -1 6 C-0.67 4.02 -0.34 2.04 0 0 Z " fill="#638FA2" transform="translate(507,523)"/>
<path d="M0 0 C0.66 0.66 1.32 1.32 2 2 C-10.63339454 13.16002099 -10.63339454 13.16002099 -16 15 C-16 14.34 -16 13.68 -16 13 C-14.27734375 11.73828125 -14.27734375 11.73828125 -11.9375 10.3125 C-7.34688928 7.37073205 -3.68105829 4.0006357 0 0 Z " fill="#171D1F" transform="translate(561,734)"/>
<path d="M0 0 C1.39214652 4.17643955 -0.29335734 6.83437793 -1.9375 10.6875 C-2.22818359 11.38939453 -2.51886719 12.09128906 -2.81835938 12.81445312 C-3.53710313 14.54650775 -4.26745331 16.27373781 -5 18 C-6.25955231 14.22134307 -5.48087189 12.96588214 -4.0625 9.3125 C-3.49208984 7.82169922 -3.49208984 7.82169922 -2.91015625 6.30078125 C-2.45962891 5.16189453 -2.45962891 5.16189453 -2 4 C-3.32 3.67 -4.64 3.34 -6 3 C-5.67 2.34 -5.34 1.68 -5 1 C-3.35 1.33 -1.7 1.66 0 2 C0 1.34 0 0.68 0 0 Z " fill="#172022" transform="translate(688,711)"/>
<path d="M0 0 C0.66 0.33 1.32 0.66 2 1 C-0.31 6.28 -2.62 11.56 -5 17 C-5.33 17 -5.66 17 -6 17 C-6 14.36 -6 11.72 -6 9 C-5.34 9 -4.68 9 -4 9 C-3.71125 8.071875 -3.4225 7.14375 -3.125 6.1875 C-2 3 -2 3 0 0 Z " fill="#E8FAFD" transform="translate(338,259)"/>
<path d="M0 0 C-0.54619452 3.76543194 -1.97481823 5.18817536 -4.875 7.5625 C-7.36338916 9.62391463 -9.75309443 11.67537129 -12 14 C-10.63350805 9.99304703 -8.82896473 7.3232826 -6 4.1875 C-4.948125 3.00220703 -4.948125 3.00220703 -3.875 1.79296875 C-2 0 -2 0 0 0 Z " fill="#1B2223" transform="translate(479,656)"/>
<path d="M0 0 C0.33 0.66 0.66 1.32 1 2 C-5.14909985 6.0993999 -12.85564843 5.11627335 -20 5 C-20 4.67 -20 4.34 -20 4 C-19.05898437 3.87882813 -18.11796875 3.75765625 -17.1484375 3.6328125 C-15.28058594 3.38144531 -15.28058594 3.38144531 -13.375 3.125 C-12.14523438 2.96257813 -10.91546875 2.80015625 -9.6484375 2.6328125 C-6.26038483 2.04516311 -3.22301349 1.18011878 0 0 Z " fill="#0C1114" transform="translate(174,750)"/>
<path d="M0 0 C0.66 0.33 1.32 0.66 2 1 C-0.97 3.64 -3.94 6.28 -7 9 C-7.66 8.67 -8.32 8.34 -9 8 C-8.67 6.35 -8.34 4.7 -8 3 C-6.865625 2.690625 -5.73125 2.38125 -4.5625 2.0625 C-1.21224901 1.37075469 -1.21224901 1.37075469 0 0 Z " fill="#809C82" transform="translate(617,479)"/>
<path d="M0 0 C0.33 0 0.66 0 1 0 C1.33 5.61 1.66 11.22 2 17 C0.35 16.67 -1.3 16.34 -3 16 C-2.01 15.67 -1.02 15.34 0 15 C0 10.05 0 5.1 0 0 Z " fill="#050B0B" transform="translate(581,696)"/>
<path d="M0 0 C1.22156872 3.66470616 0.62833432 4.63237688 -0.8125 8.125 C-1.16957031 9.01445313 -1.52664063 9.90390625 -1.89453125 10.8203125 C-3 13 -3 13 -5 14 C-4.979375 13.05125 -4.95875 12.1025 -4.9375 11.125 C-4.77448174 8.09333717 -4.77448174 8.09333717 -6 6 C-4.68 6 -3.36 6 -2 6 C-1.34 4.02 -0.68 2.04 0 0 Z " fill="#1A2224" transform="translate(714,645)"/>
<path d="M0 0 C0.33 0.66 0.66 1.32 1 2 C1.66 2 2.32 2 3 2 C3.33 2.99 3.66 3.98 4 5 C3.05125 5.2475 2.1025 5.495 1.125 5.75 C-2.08693191 6.6857077 -2.08693191 6.6857077 -3.375 9.125 C-3.58125 9.74375 -3.7875 10.3625 -4 11 C-3.48964169 6.6109185 -2.47785723 3.66291938 0 0 Z M0 2 C1 4 1 4 1 4 Z " fill="#7E9C81" transform="translate(531,355)"/>
<path d="M0 0 C4.71403788 0.47939368 8.66579301 0.96834048 13 3 C9 4 9 4 5 5 C4.67 4.01 4.34 3.02 4 2 C1.99983534 0.79117904 1.99983534 0.79117904 0 0 Z M3 5 C5 6 5 6 5 6 Z " fill="#161E20" transform="translate(160,696)"/>
<path d="M0 0 C1.32 1.32 2.64 2.64 4 4 C4.66 3.34 5.32 2.68 6 2 C6.125 4.875 6.125 4.875 6 8 C5.34 8.66 4.68 9.32 4 10 C3.32845067 8.71086513 2.66291141 7.41859796 2 6.125 C1.62875 5.40570312 1.2575 4.68640625 0.875 3.9453125 C0 2 0 2 0 0 Z " fill="#7F9D80" transform="translate(524,511)"/>
<path d="M0 0 C1.66611905 -0.042721 3.33382885 -0.04063832 5 0 C5.33 0.33 5.66 0.66 6 1 C7.34747084 1.23075082 8.70377565 1.41153063 10.0625 1.5625 C11.361875 1.706875 12.66125 1.85125 14 2 C14 2.66 14 3.32 14 4 C12.22825181 3.91276622 10.45752623 3.80458345 8.6875 3.6875 C7.70136719 3.62949219 6.71523438 3.57148438 5.69921875 3.51171875 C2.75615543 2.95377187 1.81817001 2.31459868 0 0 Z " fill="#E2F3F7" transform="translate(435,205)"/>
<path d="M0 0 C4.97093824 0.41153737 9.44508386 0.79600832 14 3 C10.50581737 4.16472754 8.5736062 3.6082734 5 3 C4.01 3.495 4.01 3.495 3 4 C3 3.01 3 2.02 3 1 C2.01 0.67 1.02 0.34 0 0 Z " fill="#5B8E9F" transform="translate(445,209)"/>
<path d="M0 0 C4.05606165 0.46800711 7.46588679 0.87953208 11 3 C10.67 3.66 10.34 4.32 10 5 C8.6078125 4.505 8.6078125 4.505 7.1875 4 C4.07970709 2.85032996 4.07970709 2.85032996 1 3 C0.67 2.01 0.34 1.02 0 0 Z " fill="#151B1E" transform="translate(174,700)"/>
<path d="M0 0 C0 4.61538462 0 4.61538462 -1 7 C-3.5625 8.25 -3.5625 8.25 -6 9 C-4.68775452 5.06326356 -3.08089673 2.77280706 0 0 Z " fill="#6494A7" transform="translate(352,242)"/>
<path d="M0 0 C0.33 0.99 0.66 1.98 1 3 C0.34 3.66 -0.32 4.32 -1 5 C-1.67292501 6.96690374 -1.67292501 6.96690374 -2.125 9.125 C-2.41375 10.40375 -2.7025 11.6825 -3 13 C-4.29904812 8.8172493 -3.45033124 6.12199405 -2 2 C-1.34 1.34 -0.68 0.68 0 0 Z " fill="#E6F7FA" transform="translate(499,401)"/>
<path d="M0 0 C2.64 1.65 5.28 3.3 8 5 C7.67 5.66 7.34 6.32 7 7 C4.50638429 5.79618552 2.31856917 4.54571278 0 3 C0 2.01 0 1.02 0 0 Z " fill="#E6F6F9" transform="translate(453,497)"/>
<path d="M0 0 C0.66 0.33 1.32 0.66 2 1 C2 1.66 2 2.32 2 3 C1.01 3 0.02 3 -1 3 C-1.33 4.32 -1.66 5.64 -2 7 C-2.99 7 -3.98 7 -5 7 C-3.35 4.69 -1.7 2.38 0 0 Z " fill="#809882" transform="translate(549,322)"/>
<path d="M0 0 C1.65 0 3.3 0 5 0 C3.25 4.875 3.25 4.875 1 6 C0.67 4.02 0.34 2.04 0 0 Z " fill="#7D9C80" transform="translate(674,414)"/>
<path d="M0 0 C0.99 1.32 1.98 2.64 3 4 C1.02 4.66 -0.96 5.32 -3 6 C-1.125 1.125 -1.125 1.125 0 0 Z " fill="#699CAD" transform="translate(345,251)"/>
</svg>
